<svg xmlns="http://www.w3.org/2000/svg" viewBox="0 0 1600 900" role="img" aria-label="Romanian driving school AI enrollment Instagram WhatsApp case study">
  <defs>
    <linearGradient id="dsBg" x1="0" y1="0" x2="1" y2="1">
      <stop offset="0%" stop-color="#03070f"/>
      <stop offset="55%" stop-color="#0a1420"/>
      <stop offset="100%" stop-color="#02060c"/>
    </linearGradient>
    <radialGradient id="dsGlow1" cx="50%" cy="50%" r="50%">
      <stop offset="0%" stop-color="#38bdf8" stop-opacity="0.34"/>
      <stop offset="70%" stop-color="#38bdf8" stop-opacity="0"/>
    </radialGradient>
    <radialGradient id="dsGlow2" cx="50%" cy="50%" r="50%">
      <stop offset="0%" stop-color="#f59e0b" stop-opacity="0.28"/>
      <stop offset="70%" stop-color="#f59e0b" stop-opacity="0"/>
    </radialGradient>
    <linearGradient id="dsPanel" x1="0" y1="0" x2="0" y2="1">
      <stop offset="0%" stop-color="#0f1c2e"/>
      <stop offset="100%" stop-color="#050a12"/>
    </linearGradient>
    <linearGradient id="dsEdge" x1="0" y1="0" x2="1" y2="1">
      <stop offset="0%" stop-color="#38bdf8"/>
      <stop offset="100%" stop-color="#f59e0b"/>
    </linearGradient>
    <linearGradient id="dsStream" x1="0" y1="0" x2="1" y2="0">
      <stop offset="0%" stop-color="#38bdf8" stop-opacity="0"/>
      <stop offset="50%" stop-color="#38bdf8" stop-opacity="0.9"/>
      <stop offset="100%" stop-color="#f59e0b" stop-opacity="0"/>
    </linearGradient>
    <linearGradient id="dsLine" x1="0" y1="0" x2="1" y2="0">
      <stop offset="0%" stop-color="transparent"/>
      <stop offset="50%" stop-color="#38bdf8"/>
      <stop offset="100%" stop-color="#f59e0b"/>
    </linearGradient>
    <pattern id="dsGrid" width="60" height="60" patternUnits="userSpaceOnUse">
      <path d="M 60 0 L 0 0 0 60" fill="none" stroke="#38bdf8" stroke-opacity="0.07" stroke-width="1"/>
    </pattern>
    <filter id="dsBlur" x="-20%" y="-20%" width="140%" height="140%">
      <feGaussianBlur stdDeviation="14"/>
    </filter>
  </defs>

  <rect width="1600" height="900" fill="url(#dsBg)"/>
  <rect width="1600" height="900" fill="url(#dsGrid)"/>
  <circle cx="1180" cy="420" r="520" fill="url(#dsGlow1)"/>
  <circle cx="1180" cy="420" r="340" fill="url(#dsGlow2)"/>

  <g transform="translate(1180,420)" opacity="0.4" stroke-width="2" fill="none">
    <circle r="170" stroke="#38bdf8" opacity="0.9"/>
    <circle r="230" stroke="#f59e0b" opacity="0.55"/>
    <circle r="300" stroke="#38bdf8" opacity="0.4"/>
    <circle r="380" stroke="#7dd3fc" opacity="0.22"/>
  </g>

  <g transform="translate(1180,420)">
    <g filter="url(#dsBlur)" opacity="0.55">
      <rect x="-150" y="-205" width="300" height="410" rx="16" fill="#38bdf8" opacity="0.22"/>
    </g>
    <rect x="-160" y="-215" width="320" height="430" rx="18" fill="none" stroke="url(#dsEdge)" stroke-width="6"/>
    <rect x="-150" y="-205" width="300" height="410" rx="14" fill="url(#dsPanel)"/>
    <rect x="-150" y="-205" width="300" height="410" rx="14" fill="none" stroke="#0f1c2e" stroke-width="2"/>

    <g transform="translate(-128,-176)" font-family="'JetBrains Mono', 'Consolas', monospace" font-size="13" fill="#9cdcfe">
      <text x="0" y="0" font-size="11" fill="#f59e0b" letter-spacing="3">ÎNSCRIERE · AI AGENT</text>
      <text x="0" y="28">CANAL  INSTAGRAM · 23:41</text>
      <text x="0" y="52">LEAD  CAT. B · GEN Z</text>
      <text x="0" y="76">REPLY  &lt;45s · ART.50 </text>
      <text x="0" y="100">SLOT  PRACTIC · LIVIU</text>
      <text x="0" y="124">LOCAIE  VOLUNTARI</text>
      <text x="0" y="148">AVANS  500 RON · PAID</text>

      <line x1="0" y1="168" x2="244" y2="168" stroke="#38bdf8" stroke-opacity="0.4"/>

      <text x="0" y="194" fill="#f59e0b">AVIZ MEDICAL · T-2</text>
      <text x="0" y="218" fill="#f59e0b">AVIZ PSIHO · QUEUED</text>
      <text x="0" y="242" fill="#9cdcfe">DRPCIV PACK · READY</text>

      <line x1="0" y1="262" x2="244" y2="262" stroke="#38bdf8" stroke-opacity="0.4"/>

      <text x="0" y="288" fill="#bae6fd">AI · 3.8K MSG / LUN</text>
      <text x="0" y="312" font-size="11" fill="#f59e0b" letter-spacing="3">NO-SHOW 58% </text>
    </g>
  </g>

  <!-- steering / car glyph -->
  <g transform="translate(1180,420)">
    <g transform="translate(88,-188)">
      <circle cx="20" cy="20" r="18" fill="none" stroke="#f59e0b" stroke-width="2.5"/>
      <circle cx="20" cy="20" r="6" fill="none" stroke="#38bdf8" stroke-width="2"/>
      <line x1="20" y1="2" x2="20" y2="14" stroke="#f59e0b" stroke-width="2"/>
      <line x1="20" y1="26" x2="20" y2="38" stroke="#f59e0b" stroke-width="2"/>
      <line x1="2" y1="20" x2="14" y2="20" stroke="#f59e0b" stroke-width="2"/>
      <line x1="26" y1="20" x2="38" y2="20" stroke="#f59e0b" stroke-width="2"/>
    </g>
  </g>

  <g opacity="0.85">
    <path d="M 660 240 Q 880 280 1020 330" fill="none" stroke="url(#dsStream)" stroke-width="2"/>
    <path d="M 660 360 Q 880 380 1020 405" fill="none" stroke="url(#dsStream)" stroke-width="2"/>
    <path d="M 660 480 Q 880 470 1020 470" fill="none" stroke="url(#dsStream)" stroke-width="2"/>
    <path d="M 660 600 Q 880 560 1020 540" fill="none" stroke="url(#dsStream)" stroke-width="2"/>
  </g>

  <g font-family="'JetBrains Mono', 'Consolas', monospace" font-size="11" fill="#9cdcfe">
    <g transform="translate(556,225)">
      <rect x="0" y="0" width="104" height="32" rx="4" fill="#0a0612" stroke="#f59e0b" stroke-opacity="0.6"/>
      <text x="6" y="20" fill="#fde68a" letter-spacing="2">INSTAGRAM</text>
    </g>
    <g transform="translate(556,345)">
      <rect x="0" y="0" width="104" height="32" rx="4" fill="#0a0612" stroke="#38bdf8" stroke-opacity="0.6"/>
      <text x="10" y="20" letter-spacing="2">WHATSAPP</text>
    </g>
    <g transform="translate(556,465)">
      <rect x="0" y="0" width="104" height="32" rx="4" fill="#0a0612" stroke="#38bdf8" stroke-opacity="0.6"/>
      <text x="18" y="20" letter-spacing="2">CAL.COM</text>
    </g>
    <g transform="translate(556,585)">
      <rect x="0" y="0" width="104" height="32" rx="4" fill="#0a0612" stroke="#f59e0b" stroke-opacity="0.6"/>
      <text x="6" y="20" fill="#fde68a" letter-spacing="2">e-FACTURA</text>
    </g>
  </g>

  <g transform="translate(110,190)" font-family="'Orbitron', 'Segoe UI', sans-serif">
    <text x="0" y="0" font-size="18" fill="#f59e0b" letter-spacing="6">CASE STUDY // 14</text>
    <text x="0" y="70" font-size="48" font-weight="800" fill="#ffffff" letter-spacing="2">DRIVING SCHOOL · AI</text>
    <text x="0" y="120" font-size="28" fill="#bae6fd" letter-spacing="3">INSTAGRAM · WHATSAPP · DRPCIV</text>

    <g transform="translate(0,180)">
      <rect x="0" y="0" width="260" height="90" rx="6" fill="none" stroke="#38bdf8" stroke-width="2"/>
      <text x="20" y="38" font-size="16" fill="#bae6fd" letter-spacing="3">DM REPLY · 24/7</text>
      <text x="20" y="78" font-size="44" font-weight="800" fill="#38bdf8">&lt;45s</text>
    </g>

    <g transform="translate(280,180)">
      <rect x="0" y="0" width="240" height="90" rx="6" fill="none" stroke="#f59e0b" stroke-width="2"/>
      <text x="20" y="38" font-size="16" fill="#fde68a" letter-spacing="3">NO-SHOWS</text>
      <text x="20" y="78" font-size="44" font-weight="800" fill="#f59e0b">58%</text>
    </g>

    <g transform="translate(0,310)" font-size="14" fill="#94a3b8" letter-spacing="2">
      <text>ARR · DRPCIV · e-FACTURA · WHATSAPP FLOWS · n8n · OPENAI</text>
    </g>
  </g>

  <g transform="translate(0,724)">
    <rect x="0" y="0" width="1600" height="80" fill="#0a0612" opacity="0.4"/>
    <g stroke="#38bdf8" stroke-width="2" opacity="0.35">
      <line x1="0" y1="78" x2="1600" y2="78"/>
    </g>
    <g fill="none" stroke="#1e293b" stroke-width="2" opacity="0.9">
      <g transform="translate(200,18)">
        <circle cx="25" cy="39" r="16" fill="#141033" stroke="#38bdf8" stroke-width="1.5"/>
        <circle cx="25" cy="39" r="5" fill="#141033" stroke="#f59e0b" stroke-width="1.5"/>
      </g>
      <g transform="translate(640,18)">
        <rect x="0" y="14" width="50" height="50" rx="6" fill="#141033" stroke="#f59e0b" stroke-width="1.5"/>
        <path d="M 16 30 L 24 38 L 38 24" fill="none" stroke="#38bdf8" stroke-width="2.5"/>
      </g>
      <g transform="translate(1080,18)">
        <circle cx="25" cy="39" r="16" fill="#141033" stroke="#f59e0b" stroke-width="1.5"/>
        <circle cx="25" cy="39" r="5" fill="#141033" stroke="#38bdf8" stroke-width="1.5"/>
      </g>
      <g transform="translate(1400,18)">
        <rect x="0" y="14" width="50" height="50" rx="6" fill="#141033" stroke="#38bdf8" stroke-width="1.5"/>
        <path d="M 16 30 L 24 38 L 38 24" fill="none" stroke="#f59e0b" stroke-width="2.5"/>
      </g>
    </g>
  </g>

  <rect x="0" y="870" width="1600" height="2" fill="url(#dsLine)"/>
</svg>
