<svg xmlns="http://www.w3.org/2000/svg" viewBox="0 0 1600 900" role="img" aria-label="Romanian private kindergarten after-school AI enrollment WhatsApp Instagram case study">
  <defs>
    <linearGradient id="kgBg" x1="0" y1="0" x2="1" y2="1">
      <stop offset="0%" stop-color="#061018"/>
      <stop offset="55%" stop-color="#0a1a14"/>
      <stop offset="100%" stop-color="#050e12"/>
    </linearGradient>
    <radialGradient id="kgGlow1" cx="50%" cy="50%" r="50%">
      <stop offset="0%" stop-color="#34d399" stop-opacity="0.30"/>
      <stop offset="70%" stop-color="#34d399" stop-opacity="0"/>
    </radialGradient>
    <radialGradient id="kgGlow2" cx="50%" cy="50%" r="50%">
      <stop offset="0%" stop-color="#38bdf8" stop-opacity="0.24"/>
      <stop offset="70%" stop-color="#38bdf8" stop-opacity="0"/>
    </radialGradient>
    <linearGradient id="kgPanel" x1="0" y1="0" x2="0" y2="1">
      <stop offset="0%" stop-color="#0f2a22"/>
      <stop offset="100%" stop-color="#061210"/>
    </linearGradient>
    <linearGradient id="kgEdge" x1="0" y1="0" x2="1" y2="1">
      <stop offset="0%" stop-color="#34d399"/>
      <stop offset="100%" stop-color="#38bdf8"/>
    </linearGradient>
    <linearGradient id="kgStream" x1="0" y1="0" x2="1" y2="0">
      <stop offset="0%" stop-color="#34d399" stop-opacity="0"/>
      <stop offset="50%" stop-color="#34d399" stop-opacity="0.9"/>
      <stop offset="100%" stop-color="#38bdf8" stop-opacity="0"/>
    </linearGradient>
    <linearGradient id="kgLine" x1="0" y1="0" x2="1" y2="0">
      <stop offset="0%" stop-color="transparent"/>
      <stop offset="50%" stop-color="#34d399"/>
      <stop offset="100%" stop-color="#38bdf8"/>
    </linearGradient>
    <pattern id="kgGrid" width="60" height="60" patternUnits="userSpaceOnUse">
      <path d="M 60 0 L 0 0 0 60" fill="none" stroke="#34d399" stroke-opacity="0.07" stroke-width="1"/>
    </pattern>
    <filter id="kgBlur" x="-20%" y="-20%" width="140%" height="140%">
      <feGaussianBlur stdDeviation="14"/>
    </filter>
  </defs>

  <rect width="1600" height="900" fill="url(#kgBg)"/>
  <rect width="1600" height="900" fill="url(#kgGrid)"/>
  <circle cx="1180" cy="420" r="520" fill="url(#kgGlow1)"/>
  <circle cx="1180" cy="420" r="340" fill="url(#kgGlow2)"/>

  <g transform="translate(1180,420)" opacity="0.4" stroke-width="2" fill="none">
    <circle r="170" stroke="#34d399" opacity="0.9"/>
    <circle r="230" stroke="#38bdf8" opacity="0.55"/>
    <circle r="300" stroke="#34d399" opacity="0.4"/>
    <circle r="380" stroke="#a7f3d0" opacity="0.22"/>
  </g>

  <g transform="translate(1180,420)">
    <g filter="url(#kgBlur)" opacity="0.55">
      <rect x="-150" y="-205" width="300" height="410" rx="16" fill="#34d399" opacity="0.22"/>
    </g>
    <rect x="-160" y="-215" width="320" height="430" rx="18" fill="none" stroke="url(#kgEdge)" stroke-width="6"/>
    <rect x="-150" y="-205" width="300" height="410" rx="14" fill="url(#kgPanel)"/>
    <rect x="-150" y="-205" width="300" height="410" rx="14" fill="none" stroke="#0f2a22" stroke-width="2"/>

    <g transform="translate(-128,-176)" font-family="'JetBrains Mono', 'Consolas', monospace" font-size="13" fill="#a7f3d0">
      <text x="0" y="0" font-size="11" fill="#38bdf8" letter-spacing="3">GRADINI · AFTER-SCHOOL</text>
      <text x="0" y="28">LOC  BUCUR. · CLUJ · IAI</text>
      <text x="0" y="52">CANAL  IG REEL ’ WA FLOW</text>
      <text x="0" y="76">ÎNSCRIERE  SEP 2026</text>
      <text x="0" y="100">LOCURI  11 · WAITLIST</text>
      <text x="0" y="124">DOC  ADEVERIN · CNP</text>
      <text x="0" y="148">HUMAN  DIRECTOR </text>

      <line x1="0" y1="168" x2="244" y2="168" stroke="#34d399" stroke-opacity="0.4"/>

      <text x="0" y="194" fill="#38bdf8">ART. 50 · DISCLOSURE </text>
      <text x="0" y="218" fill="#38bdf8">FLOWS · PRE-OCT 1</text>
      <text x="0" y="242" fill="#a7f3d0">1.000 FREE MSG / NR</text>

      <line x1="0" y1="262" x2="244" y2="262" stroke="#34d399" stroke-opacity="0.4"/>

      <text x="0" y="288" fill="#d1fae5">AI · 9.2K MSG / LUN</text>
      <text x="0" y="312" font-size="11" fill="#38bdf8" letter-spacing="3">SPOT HELD </text>
    </g>
  </g>

  <g font-family="'Space Grotesk', 'Segoe UI', sans-serif" fill="#ecfdf5">
    <text x="96" y="220" font-size="22" fill="#34d399" letter-spacing="6" font-weight="600">IZIWEB · CASE STUDY</text>
    <text x="96" y="300" font-size="58" font-weight="700">September enrollment</text>
    <text x="96" y="372" font-size="58" font-weight="700">without the WhatsApp bill</text>
    <text x="96" y="440" font-size="24" fill="#a7f3d0">Private kindergarten + after-school · RO · EN</text>
    <rect x="96" y="480" width="220" height="4" fill="url(#kgLine)"/>
    <text x="96" y="540" font-size="20" fill="#6ee7b7">Instagram Reels ’ WhatsApp Flows ’ Kinderpedia</text>
    <text x="96" y="580" font-size="20" fill="#6ee7b7">Before Metas 1 Oct 2026 service-message cliff</text>
  </g>

  <g opacity="0.85">
    <rect x="96" y="720" width="180" height="72" rx="12" fill="#0f2a22" stroke="#34d399" stroke-width="1.5"/>
    <text x="116" y="752" font-family="'JetBrains Mono', monospace" font-size="22" fill="#34d399">&lt;45s</text>
    <text x="116" y="776" font-family="'Space Grotesk', sans-serif" font-size="13" fill="#a7f3d0">median DM reply</text>

    <rect x="296" y="720" width="200" height="72" rx="12" fill="#0f2a22" stroke="#38bdf8" stroke-width="1.5"/>
    <text x="316" y="752" font-family="'JetBrains Mono', monospace" font-size="22" fill="#38bdf8">68%</text>
    <text x="316" y="776" font-family="'Space Grotesk', sans-serif" font-size="13" fill="#a7f3d0">billable free-form msgs</text>

    <rect x="516" y="720" width="200" height="72" rx="12" fill="#0f2a22" stroke="#34d399" stroke-width="1.5"/>
    <text x="536" y="752" font-family="'JetBrains Mono', monospace" font-size="22" fill="#34d399">94%</text>
    <text x="536" y="776" font-family="'Space Grotesk', sans-serif" font-size="13" fill="#a7f3d0">docs chased by AI</text>
  </g>

  <rect x="900" y="120" width="420" height="3" fill="url(#kgStream)" opacity="0.7"/>
  <rect x="940" y="760" width="380" height="3" fill="url(#kgStream)" opacity="0.5"/>
</svg>
